<svg xmlns="http://www.w3.org/2000/svg" width="32" height="32" enable-background="new 0 0 32 32" viewBox="0 0 32 32" id="adwords"><path fill="#263238" d="M2.066 23.314c-.082 0-.166-.021-.242-.063-.242-.135-.329-.438-.194-.681L9.278 8.803c.134-.24.439-.326.68-.194.242.135.329.438.194.681L2.503 23.058C2.412 23.222 2.242 23.314 2.066 23.314zM9.933 27.686c-.082 0-.166-.021-.242-.063-.242-.135-.329-.438-.194-.681l4.796-8.634c.133-.24.438-.326.68-.194.242.135.329.438.194.681l-4.796 8.634C10.279 27.593 10.109 27.686 9.933 27.686z"></path><path fill="#263238" d="M15.709,15.761L9.497,26.942c-0.705,1.27-2.046,2.059-3.5,2.059c-0.674,0-1.345-0.175-1.939-0.505
					c-1.928-1.07-2.625-3.511-1.554-5.438l7.578-13.639c0.134-0.241,0.047-0.546-0.194-0.681c-0.24-0.133-0.545-0.046-0.68,0.194
					L1.629,22.571c-1.339,2.41-0.468,5.46,1.942,6.8c0.742,0.412,1.58,0.63,2.424,0.63c1.817,0,3.493-0.985,4.375-2.572
					l5.921-10.658L15.709,15.761z"></path><path fill="#263238" d="M6 30c-2.757 0-5-2.243-5-5s2.243-5 5-5 5 2.243 5 5S8.757 30 6 30zM6 21c-2.206 0-4 1.794-4 4s1.794 4 4 4 4-1.794 4-4S8.206 21 6 21zM26.004 30.001c-1.817 0-3.493-.985-4.375-2.572l-10-18c-1.339-2.41-.468-5.46 1.942-6.8.742-.412 1.581-.631 2.425-.631 1.816 0 3.492.986 4.374 2.573l10 18c1.339 2.41.468 5.46-1.942 6.8C27.687 29.783 26.848 30.001 26.004 30.001zM15.997 2.998c-.675 0-1.345.175-1.94.506-1.928 1.07-2.625 3.511-1.554 5.438l10 18c.705 1.27 2.046 2.059 3.5 2.059.674 0 1.345-.175 1.939-.505 1.928-1.07 2.625-3.511 1.554-5.438l-10-18C18.792 3.787 17.451 2.998 15.997 2.998z"></path></svg>